inDegrees=yes
name=ik_lifting_orientations
DataType=double
version=3
OpenSimVersion=4.5-2024-01-10-34fd6af
endheader
time	pelvis_tilt	pelvis_list	pelvis_rotation	pelvis_tx	pelvis_ty	pelvis_tz	hip_flexion_r	hip_adduction_r	hip_rotation_r	knee_angle_r	knee_angle_r_beta	ankle_angle_r	subtalar_angle_r	mtp_angle_r	hip_flexion_l	hip_adduction_l	hip_rotation_l	knee_angle_l	knee_angle_l_beta	ankle_angle_l	subtalar_angle_l	mtp_angle_l	lumbar_extension	lumbar_bending	lumbar_rotation	arm_flex_r	arm_add_r	arm_rot_r	elbow_flex_r	pro_sup_r	wrist_flex_r	wrist_dev_r	arm_flex_l	arm_add_l	arm_rot_l	elbow_flex_l	pro_sup_l	wrist_flex_l	wrist_dev_l
0.8100000000000001	-12.74720712968833	-15.37332895180088	-80.21462196350602	0	0.9399999998679526	0	45.19361533751297	-10.93335780888687	0	60.28672416709435	1.052201831957432	-5.396106897619483	0	0	45.19361533751297	-10.93335780888687	0	60.28672416709435	1.052201831957432	-5.396106897619483	0	0	-16.96103623902271	20.44875014716253	-9.463707032710577	16.63284232649879	-20.61389717330695	4.260275477533959	5.698293378332787	1.873937044572513	0	0	0	-10.5109543809805	0	88.15264047984903	1.873937044572513	0	0
0.82	-13.20708700101024	-16.0183090696427	-79.89367704918287	0	0.9399999998679526	0	45.19355453356991	-10.93234486884936	0	60.28665290852474	1.052200588260773	-5.395547704173492	0	0	45.19355453356991	-10.93234486884936	0	60.28665290852474	1.052200588260773	-5.395547704173492	0	0	-17.610309749986	21.39157477362354	-10.34321014393061	16.93056101595561	-21.0845754470661	4.835334516825453	6.425817989205179	1.873526026593828	0	0	0	-10.5116819028183	0	88.15304562597281	1.873526026593828	0	0
0.83	-13.64477049890099	-16.67709452507522	-79.41253419138937	0	0.9399999998679526	0	45.19330984418561	-10.92825592443703	0	60.28636792934533	1.052195614435792	-5.393291681020116	0	0	45.19330984418561	-10.92825592443703	0	60.28636792934533	1.052195614435792	-5.393291681020116	0	0	-18.26298826368396	22.4803029895346	-11.14576030817164	17.30964819972993	-21.68043397205049	5.269556663804219	7.32400970257139	1.871875417903104	0	0	0	-10.51459779422344	0	88.15467265366337	1.871875417903104	0	0
0.84	-13.99768775911215	-17.26729715290326	-78.88381377003566	0	0.9399999998679526	0	45.19307703165464	-10.92436843263121	0	60.28609709711046	1.052190887521573	-5.391148356036069	0	0	45.19307703165464	-10.92436843263121	0	60.28609709711046	1.052190887521573	-5.391148356036069	0	0	-18.77459691607331	23.40570038279266	-12.06673145216961	17.5863902958145	-22.35257926987273	5.524944054523207	8.278984819867581	1.870305255090279	0	0	0	-10.51737089983511	0	88.15622038473816	1.870305255090279	0	0
0.85	-14.32864024938034	-17.8275990566441	-78.37002187924513	0	0.9399999998679526	0	45.1928860729989	-10.92119003547842	0	60.28587485004972	1.05218700857861	-5.389398247925729	0	0	45.1928860729989	-10.92119003547842	0	60.28587485004972	1.05218700857861	-5.389398247925729	0	0	-19.25417956280292	24.30812031797021	-12.96943174425003	17.8452124874392	-23.12948602600024	5.846436359557809	9.605594992971914	1.869016801836855	0	0	0	-10.51964711523123	0	88.15749043086615	1.869016801836855	0	0
0.86	-14.65011365528439	-18.45366314459176	-77.7037959610727	0	0.9399999998679526	0	45.19281540015714	-10.92001342099968	0	60.28579249556863	1.052185571221762	-5.38875007930114	0	0	45.19281540015714	-10.92001342099968	0	60.28579249556863	1.052185571221762	-5.38875007930114	0	0	-19.76086323693381	25.23670309571601	-13.12693658980573	17.67247567575021	-24.14928312905051	5.19547586783222	10.78570029986986	1.868539738278068	0	0	0	-10.52049034095047	0	88.15796067900739	1.868539738278068	0	0
0.87	-15.04546108296114	-19.22377750548997	-76.86051989406761	0	0.9399999998679526	0	45.19271279023366	-10.91830476257922	0	60.28567303923846	1.052183486315488	-5.387809030517889	0	0	45.19271279023366	-10.91830476257922	0	60.28567303923846	1.052183486315488	-5.387809030517889	0	0	-20.39365470164603	26.38961214466565	-12.95570183906865	17.33902254921236	-25.28964463299451	3.975781816681497	11.61213467476527	1.867847274421864	0	0	0	-10.52171397787435	0	88.15864325018933	1.867847274421864	0	0
0.88	-15.43438190972647	-19.96911852343735	-76.14346361917748	0	0.9399999998679526	0	45.1926262575917	-10.91686933510729	0	60.28557207860696	1.052181724220053	-5.387019270106499	0	0	45.1926262575917	-10.91686933510729	0	60.28557207860696	1.052181724220053	-5.387019270106499	0	0	-21.01142248567086	27.54055581182147	-13.08577794799071	16.93890481328492	-26.29837651041969	3.180306716099098	12.80991027060245	1.867262751691982	0	0	0	-10.52274766871906	0	88.15921942234549	1.867262751691982	0	0
0.89	-15.81918278011645	-20.56287639322686	-75.8770620704196	0	0.9399999998679526	0	45.19252119908884	-10.91513232218833	0	60.28544929250675	1.052179581198329	-5.386064466617021	0	0	45.19252119908884	-10.91513232218833	0	60.28544929250675	1.052179581198329	-5.386064466617021	0	0	-21.71370147119436	28.53639792336729	-12.98581552416299	16.58556516512173	-27.12613833708426	2.632194886454923	13.78037088515716	1.86655253735365	0	0	0	-10.52400441244643	0	88.15991949049459	1.86655253735365	0	0
0.9	-16.16225320169661	-21.05271711060282	-75.82691448083492	0	0.9399999998679526	0	45.19241082410604	-10.91330610801815	0	60.28532049461284	1.05217733325101	-5.385060816342216	0	0	45.19241082410604	-10.91330610801815	0	60.28532049461284	1.05217733325101	-5.385060816342216	0	0	-22.42977351141266	29.39885498198209	-12.5258347581551	16.61968686728304	-27.98926925010893	2.072227944674803	14.15300826322723	1.865806742339098	0	0	0	-10.5253235228739	0	88.16065463099297	1.865806742339098	0	0
0.91	-16.54634301625595	-21.57489842359458	-75.62177124699635	0	0.9399999998679526	0	45.19233075815937	-10.91198097188423	0	60.28522716384268	1.052175704321778	-5.384332700880798	0	0	45.19233075815937	-10.91198097188423	0	60.28522716384268	1.052175704321778	-5.384332700880798	0	0	-23.09463592763284	30.365276966083	-12.3189620679866	16.52343256687972	-29.05824237642456	1.560761202405471	14.90739812359686	1.865265907083682	0	0	0	-10.52627983882821	0	88.16118773980412	1.865265907083682	0	0
0.92	-16.83632479071859	-22.0173218053429	-75.4810852869425	0	0.9399999998679526	0	45.19226078356645	-10.91082211652638	0	60.28514569666918	1.052174282451368	-5.383696020670094	0	0	45.19226078356645	-10.91082211652638	0	60.28514569666918	1.052174282451368	-5.383696020670094	0	0	-23.68534976221156	31.15415707617989	-12.04844228219558	16.38105781606851	-30.21331110595597	0.8552932203940303	15.15481909341027	1.864793421486336	0	0	0	-10.52711499565598	0	88.16165347540013	1.864793421486336	0	0
